<mxfile host="app.diagrams.net" agent="Mozilla/5.0 (Windows NT 10.0; Win64; x64) AppleWebKit/537.36 (KHTML, like Gecko) Chrome/125.0.0.0 Safari/537.36" version="24.7.16">
  <diagram name="Page-1" id="ObgT2ZF8Fu4IhIPiKcPX">
    <mxGraphModel dx="1207" dy="604" grid="1" gridSize="10" guides="1" tooltips="1" connect="1" arrows="1" fold="1" page="1" pageScale="1" pageWidth="850" pageHeight="1100" math="0" shadow="0">
      <root>
        <mxCell id="0" />
        <mxCell id="1" parent="0" />
        <mxCell id="4ZLISyneE1_8i2KJAUeh-17" value="" style="edgeStyle=orthogonalEdgeStyle;rounded=0;orthogonalLoop=1;jettySize=auto;html=1;" edge="1" parent="1" source="4ZLISyneE1_8i2KJAUeh-2" target="4ZLISyneE1_8i2KJAUeh-3">
          <mxGeometry relative="1" as="geometry" />
        </mxCell>
        <mxCell id="4ZLISyneE1_8i2KJAUeh-47" value="1" style="edgeLabel;html=1;align=center;verticalAlign=middle;resizable=0;points=[];" vertex="1" connectable="0" parent="4ZLISyneE1_8i2KJAUeh-17">
          <mxGeometry x="0.0952" y="2" relative="1" as="geometry">
            <mxPoint as="offset" />
          </mxGeometry>
        </mxCell>
        <mxCell id="4ZLISyneE1_8i2KJAUeh-19" value="" style="edgeStyle=orthogonalEdgeStyle;rounded=0;orthogonalLoop=1;jettySize=auto;html=1;" edge="1" parent="1" source="4ZLISyneE1_8i2KJAUeh-2" target="4ZLISyneE1_8i2KJAUeh-4">
          <mxGeometry relative="1" as="geometry" />
        </mxCell>
        <mxCell id="4ZLISyneE1_8i2KJAUeh-48" value="2" style="edgeLabel;html=1;align=center;verticalAlign=middle;resizable=0;points=[];" vertex="1" connectable="0" parent="4ZLISyneE1_8i2KJAUeh-19">
          <mxGeometry x="0.2476" y="2" relative="1" as="geometry">
            <mxPoint as="offset" />
          </mxGeometry>
        </mxCell>
        <mxCell id="4ZLISyneE1_8i2KJAUeh-2" value="&lt;div&gt;pdf1&lt;/div&gt;&lt;div&gt;pdf2&lt;/div&gt;&lt;div&gt;pdfn&lt;/div&gt;" style="rounded=1;whiteSpace=wrap;html=1;" vertex="1" parent="1">
          <mxGeometry x="30" y="180" width="90" height="40" as="geometry" />
        </mxCell>
        <mxCell id="4ZLISyneE1_8i2KJAUeh-18" value="" style="edgeStyle=orthogonalEdgeStyle;rounded=0;orthogonalLoop=1;jettySize=auto;html=1;" edge="1" parent="1" source="4ZLISyneE1_8i2KJAUeh-3" target="4ZLISyneE1_8i2KJAUeh-5">
          <mxGeometry relative="1" as="geometry" />
        </mxCell>
        <mxCell id="4ZLISyneE1_8i2KJAUeh-52" value="4" style="edgeLabel;html=1;align=center;verticalAlign=middle;resizable=0;points=[];" vertex="1" connectable="0" parent="4ZLISyneE1_8i2KJAUeh-18">
          <mxGeometry x="0.207" y="1" relative="1" as="geometry">
            <mxPoint as="offset" />
          </mxGeometry>
        </mxCell>
        <mxCell id="4ZLISyneE1_8i2KJAUeh-26" style="edgeStyle=orthogonalEdgeStyle;rounded=0;orthogonalLoop=1;jettySize=auto;html=1;entryX=0;entryY=0.5;entryDx=0;entryDy=0;" edge="1" parent="1" source="4ZLISyneE1_8i2KJAUeh-3" target="4ZLISyneE1_8i2KJAUeh-25">
          <mxGeometry relative="1" as="geometry">
            <Array as="points">
              <mxPoint x="210" y="140" />
            </Array>
          </mxGeometry>
        </mxCell>
        <mxCell id="4ZLISyneE1_8i2KJAUeh-49" value="3" style="edgeLabel;html=1;align=center;verticalAlign=middle;resizable=0;points=[];" vertex="1" connectable="0" parent="4ZLISyneE1_8i2KJAUeh-26">
          <mxGeometry x="-0.1667" y="1" relative="1" as="geometry">
            <mxPoint as="offset" />
          </mxGeometry>
        </mxCell>
        <mxCell id="4ZLISyneE1_8i2KJAUeh-3" value="&lt;div&gt;text&lt;/div&gt;" style="rounded=1;whiteSpace=wrap;html=1;" vertex="1" parent="1">
          <mxGeometry x="160" y="150" width="50" height="40" as="geometry" />
        </mxCell>
        <mxCell id="4ZLISyneE1_8i2KJAUeh-24" value="" style="edgeStyle=orthogonalEdgeStyle;rounded=0;orthogonalLoop=1;jettySize=auto;html=1;" edge="1" parent="1" source="4ZLISyneE1_8i2KJAUeh-4" target="4ZLISyneE1_8i2KJAUeh-23">
          <mxGeometry relative="1" as="geometry" />
        </mxCell>
        <mxCell id="4ZLISyneE1_8i2KJAUeh-4" value="&lt;div&gt;&lt;span style=&quot;background-color: initial;&quot;&gt;images&lt;/span&gt;&lt;br&gt;&lt;/div&gt;" style="rounded=1;whiteSpace=wrap;html=1;" vertex="1" parent="1">
          <mxGeometry x="160" y="210" width="50" height="40" as="geometry" />
        </mxCell>
        <mxCell id="4ZLISyneE1_8i2KJAUeh-20" value="" style="edgeStyle=orthogonalEdgeStyle;rounded=0;orthogonalLoop=1;jettySize=auto;html=1;" edge="1" parent="1" source="4ZLISyneE1_8i2KJAUeh-5" target="4ZLISyneE1_8i2KJAUeh-6">
          <mxGeometry relative="1" as="geometry" />
        </mxCell>
        <mxCell id="4ZLISyneE1_8i2KJAUeh-53" value="5" style="edgeLabel;html=1;align=center;verticalAlign=middle;resizable=0;points=[];" vertex="1" connectable="0" parent="4ZLISyneE1_8i2KJAUeh-20">
          <mxGeometry x="-0.1594" relative="1" as="geometry">
            <mxPoint as="offset" />
          </mxGeometry>
        </mxCell>
        <mxCell id="4ZLISyneE1_8i2KJAUeh-5" value="&lt;div&gt;chunks&lt;/div&gt;" style="rounded=1;whiteSpace=wrap;html=1;" vertex="1" parent="1">
          <mxGeometry x="242.5" y="150" width="50" height="40" as="geometry" />
        </mxCell>
        <mxCell id="4ZLISyneE1_8i2KJAUeh-28" style="edgeStyle=orthogonalEdgeStyle;rounded=0;orthogonalLoop=1;jettySize=auto;html=1;exitX=1;exitY=0.5;exitDx=0;exitDy=0;" edge="1" parent="1" source="4ZLISyneE1_8i2KJAUeh-6" target="4ZLISyneE1_8i2KJAUeh-10">
          <mxGeometry relative="1" as="geometry">
            <Array as="points">
              <mxPoint x="400" y="170" />
              <mxPoint x="400" y="230" />
            </Array>
          </mxGeometry>
        </mxCell>
        <mxCell id="4ZLISyneE1_8i2KJAUeh-6" value="&lt;div&gt;&lt;span style=&quot;background-color: initial;&quot;&gt;embeddings&lt;/span&gt;&lt;/div&gt;" style="rounded=1;whiteSpace=wrap;html=1;" vertex="1" parent="1">
          <mxGeometry x="350" y="160" width="90" height="20" as="geometry" />
        </mxCell>
        <mxCell id="4ZLISyneE1_8i2KJAUeh-36" value="" style="edgeStyle=orthogonalEdgeStyle;rounded=0;orthogonalLoop=1;jettySize=auto;html=1;" edge="1" parent="1" source="4ZLISyneE1_8i2KJAUeh-8" target="4ZLISyneE1_8i2KJAUeh-35">
          <mxGeometry relative="1" as="geometry" />
        </mxCell>
        <mxCell id="4ZLISyneE1_8i2KJAUeh-56" value="8" style="edgeLabel;html=1;align=center;verticalAlign=middle;resizable=0;points=[];" vertex="1" connectable="0" parent="4ZLISyneE1_8i2KJAUeh-36">
          <mxGeometry x="0.6222" relative="1" as="geometry">
            <mxPoint as="offset" />
          </mxGeometry>
        </mxCell>
        <mxCell id="4ZLISyneE1_8i2KJAUeh-8" value="&lt;div&gt;&lt;span style=&quot;background-color: initial;&quot;&gt;csv/json&lt;/span&gt;&lt;/div&gt;" style="rounded=1;whiteSpace=wrap;html=1;" vertex="1" parent="1">
          <mxGeometry x="307.5" y="270" width="60" height="40" as="geometry" />
        </mxCell>
        <mxCell id="4ZLISyneE1_8i2KJAUeh-34" value="" style="edgeStyle=orthogonalEdgeStyle;rounded=0;orthogonalLoop=1;jettySize=auto;html=1;" edge="1" parent="1" source="4ZLISyneE1_8i2KJAUeh-9" target="4ZLISyneE1_8i2KJAUeh-33">
          <mxGeometry relative="1" as="geometry" />
        </mxCell>
        <mxCell id="4ZLISyneE1_8i2KJAUeh-9" value="image-dataframe" style="rounded=1;whiteSpace=wrap;html=1;" vertex="1" parent="1">
          <mxGeometry x="140" y="330" width="75" height="40" as="geometry" />
        </mxCell>
        <mxCell id="4ZLISyneE1_8i2KJAUeh-32" value="" style="edgeStyle=orthogonalEdgeStyle;rounded=0;orthogonalLoop=1;jettySize=auto;html=1;" edge="1" parent="1" source="4ZLISyneE1_8i2KJAUeh-10" target="4ZLISyneE1_8i2KJAUeh-8">
          <mxGeometry relative="1" as="geometry" />
        </mxCell>
        <mxCell id="4ZLISyneE1_8i2KJAUeh-55" value="7" style="edgeLabel;html=1;align=center;verticalAlign=middle;resizable=0;points=[];" vertex="1" connectable="0" parent="4ZLISyneE1_8i2KJAUeh-32">
          <mxGeometry x="0.5556" y="1" relative="1" as="geometry">
            <mxPoint as="offset" />
          </mxGeometry>
        </mxCell>
        <mxCell id="4ZLISyneE1_8i2KJAUeh-50" value="" style="edgeStyle=orthogonalEdgeStyle;rounded=0;orthogonalLoop=1;jettySize=auto;html=1;" edge="1" parent="1" source="4ZLISyneE1_8i2KJAUeh-10" target="4ZLISyneE1_8i2KJAUeh-4">
          <mxGeometry relative="1" as="geometry" />
        </mxCell>
        <mxCell id="4ZLISyneE1_8i2KJAUeh-10" value="text-dataframe" style="rounded=1;whiteSpace=wrap;html=1;" vertex="1" parent="1">
          <mxGeometry x="300" y="210" width="75" height="40" as="geometry" />
        </mxCell>
        <mxCell id="4ZLISyneE1_8i2KJAUeh-44" value="" style="edgeStyle=orthogonalEdgeStyle;rounded=0;orthogonalLoop=1;jettySize=auto;html=1;" edge="1" parent="1" source="4ZLISyneE1_8i2KJAUeh-11" target="4ZLISyneE1_8i2KJAUeh-13">
          <mxGeometry relative="1" as="geometry" />
        </mxCell>
        <mxCell id="4ZLISyneE1_8i2KJAUeh-61" value="12" style="edgeLabel;html=1;align=center;verticalAlign=middle;resizable=0;points=[];" vertex="1" connectable="0" parent="4ZLISyneE1_8i2KJAUeh-44">
          <mxGeometry x="-0.4333" y="-1" relative="1" as="geometry">
            <mxPoint as="offset" />
          </mxGeometry>
        </mxCell>
        <mxCell id="4ZLISyneE1_8i2KJAUeh-11" value="context" style="rounded=1;whiteSpace=wrap;html=1;" vertex="1" parent="1">
          <mxGeometry x="410" y="450" width="90" height="20" as="geometry" />
        </mxCell>
        <mxCell id="4ZLISyneE1_8i2KJAUeh-42" value="" style="edgeStyle=orthogonalEdgeStyle;rounded=0;orthogonalLoop=1;jettySize=auto;html=1;" edge="1" parent="1" source="4ZLISyneE1_8i2KJAUeh-12" target="4ZLISyneE1_8i2KJAUeh-40">
          <mxGeometry relative="1" as="geometry" />
        </mxCell>
        <mxCell id="4ZLISyneE1_8i2KJAUeh-58" value="10" style="edgeLabel;html=1;align=center;verticalAlign=middle;resizable=0;points=[];" vertex="1" connectable="0" parent="4ZLISyneE1_8i2KJAUeh-42">
          <mxGeometry x="-0.6533" y="2" relative="1" as="geometry">
            <mxPoint as="offset" />
          </mxGeometry>
        </mxCell>
        <mxCell id="4ZLISyneE1_8i2KJAUeh-12" value="query" style="rounded=1;whiteSpace=wrap;html=1;" vertex="1" parent="1">
          <mxGeometry x="292.5" y="400" width="90" height="20" as="geometry" />
        </mxCell>
        <mxCell id="4ZLISyneE1_8i2KJAUeh-45" value="" style="edgeStyle=orthogonalEdgeStyle;rounded=0;orthogonalLoop=1;jettySize=auto;html=1;" edge="1" parent="1" source="4ZLISyneE1_8i2KJAUeh-13" target="4ZLISyneE1_8i2KJAUeh-15">
          <mxGeometry relative="1" as="geometry" />
        </mxCell>
        <mxCell id="4ZLISyneE1_8i2KJAUeh-62" value="13" style="edgeLabel;html=1;align=center;verticalAlign=middle;resizable=0;points=[];" vertex="1" connectable="0" parent="4ZLISyneE1_8i2KJAUeh-45">
          <mxGeometry x="0.6778" y="-1" relative="1" as="geometry">
            <mxPoint as="offset" />
          </mxGeometry>
        </mxCell>
        <mxCell id="4ZLISyneE1_8i2KJAUeh-13" value="Gemini" style="rounded=1;whiteSpace=wrap;html=1;" vertex="1" parent="1">
          <mxGeometry x="410" y="380" width="90" height="20" as="geometry" />
        </mxCell>
        <mxCell id="4ZLISyneE1_8i2KJAUeh-15" value="Results" style="rounded=1;whiteSpace=wrap;html=1;" vertex="1" parent="1">
          <mxGeometry x="410" y="330" width="90" height="20" as="geometry" />
        </mxCell>
        <mxCell id="4ZLISyneE1_8i2KJAUeh-31" value="" style="edgeStyle=orthogonalEdgeStyle;rounded=0;orthogonalLoop=1;jettySize=auto;html=1;" edge="1" parent="1" source="4ZLISyneE1_8i2KJAUeh-23" target="4ZLISyneE1_8i2KJAUeh-9">
          <mxGeometry relative="1" as="geometry">
            <Array as="points">
              <mxPoint x="180" y="330" />
              <mxPoint x="180" y="330" />
            </Array>
          </mxGeometry>
        </mxCell>
        <mxCell id="4ZLISyneE1_8i2KJAUeh-23" value="&lt;div&gt;&lt;span style=&quot;background-color: initial;&quot;&gt;embeddings&lt;/span&gt;&lt;/div&gt;" style="rounded=1;whiteSpace=wrap;html=1;" vertex="1" parent="1">
          <mxGeometry x="140" y="270" width="90" height="40" as="geometry" />
        </mxCell>
        <mxCell id="4ZLISyneE1_8i2KJAUeh-27" style="edgeStyle=orthogonalEdgeStyle;rounded=0;orthogonalLoop=1;jettySize=auto;html=1;exitX=1;exitY=0.5;exitDx=0;exitDy=0;" edge="1" parent="1" source="4ZLISyneE1_8i2KJAUeh-25" target="4ZLISyneE1_8i2KJAUeh-10">
          <mxGeometry relative="1" as="geometry">
            <Array as="points">
              <mxPoint x="400" y="140" />
              <mxPoint x="400" y="230" />
            </Array>
          </mxGeometry>
        </mxCell>
        <mxCell id="4ZLISyneE1_8i2KJAUeh-54" value="6" style="edgeLabel;html=1;align=center;verticalAlign=middle;resizable=0;points=[];" vertex="1" connectable="0" parent="4ZLISyneE1_8i2KJAUeh-27">
          <mxGeometry x="0.7028" y="3" relative="1" as="geometry">
            <mxPoint as="offset" />
          </mxGeometry>
        </mxCell>
        <mxCell id="4ZLISyneE1_8i2KJAUeh-25" value="&lt;div&gt;&lt;span style=&quot;background-color: initial;&quot;&gt;embeddings&lt;/span&gt;&lt;/div&gt;" style="rounded=1;whiteSpace=wrap;html=1;" vertex="1" parent="1">
          <mxGeometry x="350" y="130" width="90" height="20" as="geometry" />
        </mxCell>
        <mxCell id="4ZLISyneE1_8i2KJAUeh-38" value="" style="edgeStyle=orthogonalEdgeStyle;rounded=0;orthogonalLoop=1;jettySize=auto;html=1;" edge="1" parent="1" source="4ZLISyneE1_8i2KJAUeh-33" target="4ZLISyneE1_8i2KJAUeh-37">
          <mxGeometry relative="1" as="geometry" />
        </mxCell>
        <mxCell id="4ZLISyneE1_8i2KJAUeh-33" value="&lt;div&gt;&lt;span style=&quot;background-color: initial;&quot;&gt;csv/json&lt;/span&gt;&lt;/div&gt;" style="rounded=1;whiteSpace=wrap;html=1;" vertex="1" parent="1">
          <mxGeometry x="147.5" y="390" width="60" height="40" as="geometry" />
        </mxCell>
        <mxCell id="4ZLISyneE1_8i2KJAUeh-39" value="" style="edgeStyle=orthogonalEdgeStyle;rounded=0;orthogonalLoop=1;jettySize=auto;html=1;" edge="1" parent="1" source="4ZLISyneE1_8i2KJAUeh-35" target="4ZLISyneE1_8i2KJAUeh-12">
          <mxGeometry relative="1" as="geometry" />
        </mxCell>
        <mxCell id="4ZLISyneE1_8i2KJAUeh-57" value="9" style="edgeLabel;html=1;align=center;verticalAlign=middle;resizable=0;points=[];" vertex="1" connectable="0" parent="4ZLISyneE1_8i2KJAUeh-39">
          <mxGeometry x="0.5556" relative="1" as="geometry">
            <mxPoint as="offset" />
          </mxGeometry>
        </mxCell>
        <mxCell id="4ZLISyneE1_8i2KJAUeh-35" value="text-dataframe" style="rounded=1;whiteSpace=wrap;html=1;" vertex="1" parent="1">
          <mxGeometry x="300" y="330" width="75" height="40" as="geometry" />
        </mxCell>
        <mxCell id="4ZLISyneE1_8i2KJAUeh-37" value="image-dataframe" style="rounded=1;whiteSpace=wrap;html=1;" vertex="1" parent="1">
          <mxGeometry x="140" y="460" width="75" height="40" as="geometry" />
        </mxCell>
        <mxCell id="4ZLISyneE1_8i2KJAUeh-43" value="" style="edgeStyle=orthogonalEdgeStyle;rounded=0;orthogonalLoop=1;jettySize=auto;html=1;" edge="1" parent="1" source="4ZLISyneE1_8i2KJAUeh-40" target="4ZLISyneE1_8i2KJAUeh-11">
          <mxGeometry relative="1" as="geometry" />
        </mxCell>
        <mxCell id="4ZLISyneE1_8i2KJAUeh-60" value="11" style="edgeLabel;html=1;align=center;verticalAlign=middle;resizable=0;points=[];" vertex="1" connectable="0" parent="4ZLISyneE1_8i2KJAUeh-43">
          <mxGeometry x="0.3016" y="-3" relative="1" as="geometry">
            <mxPoint as="offset" />
          </mxGeometry>
        </mxCell>
        <mxCell id="4ZLISyneE1_8i2KJAUeh-40" value="Top 5 Results" style="rounded=1;whiteSpace=wrap;html=1;" vertex="1" parent="1">
          <mxGeometry x="292.5" y="450" width="90" height="20" as="geometry" />
        </mxCell>
      </root>
    </mxGraphModel>
  </diagram>
</mxfile>
